<?xml version="1.0"?>
<svg fill="#ccc" width="555.377" height="555.378" xmlns="http://www.w3.org/2000/svg" xmlns:svg="http://www.w3.org/2000/svg" version="1.1" xml:space="preserve">
 <g class="layer">
  <title>Layer 1</title>
  <g id="svg_1">
   <path d="m409.44,226.72l-293.76,0l0,328.66l293.76,0l0,-328.65l0,-0.01zm-215.73,283.78l-15.3,0l0,-238.89l15.3,0l0,238.89zm76.5,0l-15.3,0l0,-238.89l15.3,0l0,238.89zm76.5,0l-15.3,0l0,-238.89l15.3,0l0,238.89z" id="svg_3"/>
   <path d="m400.7,235.52l-59.81,-34.78l31.9,-54.85l-130.5,-75.89l-31.9,54.84l-63.63,-37l-30.25,52.02l253.93,147.69l30.26,-52.03zm-147.34,-123.68l77.59,45.12l-16.51,28.39l-77.6,-45.12l16.52,-28.39z" id="svg_4" transform="rotate(-30.166 258.605 178.775)"/>
  </g>
 </g>
</svg>